<?xml version="1.0" encoding="utf-8"?>
<!-- Generator: Adobe Illustrator 21.0.2, SVG Export Plug-In . SVG Version: 6.00 Build 0)  -->
<svg version="1.1" id="Layer_1" xmlns="http://www.w3.org/2000/svg" xmlns:xlink="http://www.w3.org/1999/xlink" x="0px" y="0px"
	 viewBox="0 0 496.5 505.3" style="enable-background:new 0 0 496.5 505.3;" xml:space="preserve">
<style type="text/css">
	.st0{fill:none;stroke:#000000;stroke-miterlimit:10;}
	.st1{fill:#FFFFFF;stroke:#000000;stroke-miterlimit:10;}
</style>
<g id="base">
	<circle class="st0" cx="246.7" cy="252.9" r="234.2"/>
	<line class="st0" x1="247.8" y1="45.1" x2="247.8" y2="18.7"/>
	<line class="st0" x1="454.5" y1="250.6" x2="480.9" y2="250.6"/>
	<line class="st0" x1="12.6" y1="250.6" x2="38.9" y2="250.6"/>
	<line class="st0" x1="248.3" y1="461.5" x2="248.3" y2="487.9"/>
</g>
<g id="minutes-hand">
	<path class="st1" d="M225.7,285.9H271l-6-19h-2.5c3.2-3.5,5.2-8.3,5.2-13.5c0-5.2-2-9.9-5.2-13.5L248,51.1L233.5,240
		c-3.2,3.5-5.2,8.3-5.2,13.5c0,5.2,2,9.9,5.2,13.5h-1.8L225.7,285.9z"/>
	<circle class="st1" cx="247.8" cy="250.6" r="9.5"/>
	<path class="st0" d="M247.8,18.7"/>
	<path class="st0" d="M247.8,45.1"/>
	<path class="st0" d="M480.9,250.6"/>
	<path class="st0" d="M12.6,250.6"/>
	<path class="st0" d="M248.3,487.9"/>
</g>
<g id="hours-hand">
	<path class="st1" d="M217.6,235.8v31.1l20.2-4.2V261c2.5,2.3,5.9,3.7,9.6,3.7c3.7,0,7.1-1.4,9.6-3.7l134.4-10.2L257,240.6
		c-2.5-2.3-5.9-3.7-9.6-3.7c-3.7,0-7.1,1.4-9.6,3.7v-1.3L217.6,235.8z"/>
	<circle class="st1" cx="248.2" cy="250.7" r="6.7"/>
</g>
<g id="line1">
	<line class="st0" x1="247.8" y1="250.6" x2="248.3" y2="487.9"/>
</g>
</svg>
